<svg xmlns="http://www.w3.org/2000/svg" xmlns:xlink="http://www.w3.org/1999/xlink" width="4192" zoomAndPan="magnify" viewBox="0 0 3144 3143.999985" height="4192" preserveAspectRatio="xMidYMid meet" version="1.0"><defs><g/><clipPath id="511a0305e7"><rect x="0" width="2856" y="0" height="2834"/></clipPath></defs><g transform="matrix(1, 0, 0, 1, 124, 310)"><g clip-path="url(#511a0305e7)"><g fill="#812c2c" fill-opacity="1"><g transform="translate(121.269623, 2158.691171)"><g><path d="M 592.75 21.875 C 490.675781 21.875 402.820312 3.285156 329.1875 -33.890625 C 255.550781 -71.078125 197.222656 -115.1875 154.203125 -166.21875 C 111.179688 -217.257812 83.113281 -263.925781 70 -306.21875 C 59.789062 -342.675781 65.617188 -369.285156 87.484375 -386.046875 C 109.359375 -402.816406 134.148438 -400.265625 161.859375 -378.390625 C 208.515625 -341.941406 260.640625 -312.050781 318.234375 -288.71875 C 375.835938 -265.382812 438.179688 -253.71875 505.265625 -253.71875 C 573.796875 -253.71875 632.847656 -273.398438 682.421875 -312.765625 C 732.003906 -352.140625 756.796875 -409.742188 756.796875 -485.578125 C 756.796875 -526.398438 747.679688 -564.3125 729.453125 -599.3125 C 711.222656 -634.3125 678.410156 -664.929688 631.015625 -691.171875 C 583.628906 -717.421875 515.460938 -738.566406 426.515625 -754.609375 C 404.640625 -758.984375 390.421875 -769.550781 383.859375 -786.3125 C 377.296875 -803.082031 376.203125 -821.3125 380.578125 -841 C 384.953125 -860.6875 392.242188 -874.90625 402.453125 -883.65625 C 475.359375 -947.8125 539.515625 -1005.40625 594.921875 -1056.4375 C 650.335938 -1107.476562 699.921875 -1163.625 743.671875 -1224.875 C 635.765625 -1229.25 527.128906 -1229.25 417.765625 -1224.875 C 372.566406 -1223.414062 339.757812 -1217.582031 319.34375 -1207.375 C 298.925781 -1197.164062 278.507812 -1181.851562 258.09375 -1161.4375 C 234.757812 -1139.5625 216.894531 -1122.0625 204.5 -1108.9375 C 192.113281 -1095.820312 177.898438 -1089.265625 161.859375 -1089.265625 C 142.898438 -1089.265625 129.410156 -1098.007812 121.390625 -1115.5 C 113.367188 -1133 110.085938 -1153.414062 111.546875 -1176.75 C 113.003906 -1207.375 118.109375 -1243.828125 126.859375 -1286.109375 C 135.609375 -1328.398438 145.085938 -1367.039062 155.296875 -1402.03125 C 169.878906 -1448.695312 189.195312 -1481.875 213.25 -1501.5625 C 237.3125 -1521.25 285.070312 -1531.09375 356.53125 -1531.09375 L 1082.703125 -1531.09375 C 1120.609375 -1531.09375 1143.570312 -1519.789062 1151.59375 -1497.1875 C 1159.613281 -1474.582031 1153.414062 -1448.695312 1133 -1419.53125 C 1068.84375 -1333.5 999.210938 -1248.925781 924.109375 -1165.8125 C 849.015625 -1082.695312 779.390625 -1006.875 715.234375 -938.34375 C 802.722656 -925.21875 883.285156 -900.789062 956.921875 -865.0625 C 1030.566406 -829.332031 1089.625 -780.484375 1134.09375 -718.515625 C 1178.570312 -656.546875 1200.8125 -578.171875 1200.8125 -483.390625 C 1200.8125 -390.066406 1177.476562 -305.125 1130.8125 -228.5625 C 1084.15625 -152.007812 1015.625 -91.128906 925.21875 -45.921875 C 834.8125 -0.722656 723.988281 21.875 592.75 21.875 Z M 592.75 21.875 "/></g></g></g><g fill="#812c2c" fill-opacity="1"><g transform="translate(1387.692936, 2158.691171)"><g><path d="M 544.53125 -1357.390625 C 554.957031 -1357.390625 567.28125 -1356.953125 581.5 -1356.078125 C 595.726562 -1355.203125 607.109375 -1353.890625 615.640625 -1352.140625 L 600 -1168.421875 C 592.414062 -1170.171875 582.457031 -1171.703125 570.125 -1173.015625 C 557.800781 -1174.328125 546.898438 -1174.984375 537.421875 -1174.984375 C 501.410156 -1174.984375 466.816406 -1169.078125 433.640625 -1157.265625 C 400.460938 -1145.453125 373.6875 -1126.421875 353.3125 -1100.171875 C 332.9375 -1073.929688 322.75 -1038.066406 322.75 -992.578125 L 322.75 -627.75 L 110.90625 -627.75 L 110.90625 -1344.265625 L 271.5625 -1344.265625 L 302.84375 -1223.53125 L 312.796875 -1223.53125 C 335.535156 -1260.28125 366.8125 -1291.773438 406.625 -1318.015625 C 446.4375 -1344.265625 492.40625 -1357.390625 544.53125 -1357.390625 Z M 544.53125 -1357.390625 "/></g></g></g><g fill="#812c2c" fill-opacity="1"><g transform="translate(2032.934704, 2158.691171)"><g><path d="M 356.859375 -614.625 C 270.609375 -614.625 200.234375 -645.898438 145.734375 -708.453125 C 91.234375 -771.003906 63.984375 -863.085938 63.984375 -984.703125 C 63.984375 -1107.179688 91.46875 -1199.914062 146.4375 -1262.90625 C 201.414062 -1325.894531 273.453125 -1357.390625 362.546875 -1357.390625 C 418.472656 -1357.390625 464.441406 -1347.328125 500.453125 -1327.203125 C 536.472656 -1307.078125 564.914062 -1282.144531 585.78125 -1252.40625 L 592.890625 -1252.40625 C 590.046875 -1266.40625 586.722656 -1286.742188 582.921875 -1313.421875 C 579.128906 -1340.109375 577.234375 -1367.453125 577.234375 -1395.453125 L 577.234375 -1625.109375 L 789.09375 -1625.109375 L 789.09375 -627.75 L 627 -627.75 L 585.78125 -720.921875 L 577.234375 -720.921875 C 556.378906 -691.171875 528.414062 -666.015625 493.34375 -645.453125 C 458.28125 -624.898438 412.785156 -614.625 356.859375 -614.625 Z M 430.796875 -770.78125 C 488.617188 -770.78125 529.378906 -786.75 553.078125 -818.6875 C 576.773438 -850.625 589.570312 -898.523438 591.46875 -962.390625 L 591.46875 -983.390625 C 591.46875 -1052.503906 579.851562 -1105.648438 556.625 -1142.828125 C 533.394531 -1180.003906 490.503906 -1198.59375 427.953125 -1198.59375 C 381.503906 -1198.59375 345.007812 -1180.003906 318.46875 -1142.828125 C 291.9375 -1105.648438 278.671875 -1052.066406 278.671875 -982.078125 C 278.671875 -912.085938 291.9375 -859.375 318.46875 -823.9375 C 345.007812 -788.5 382.453125 -770.78125 430.796875 -770.78125 Z M 430.796875 -770.78125 "/></g></g></g><g fill="#ffc700" fill-opacity="1"><g transform="translate(1.40591, 2038.827466)"><g><path d="M 592.75 21.875 C 490.675781 21.875 402.820312 3.285156 329.1875 -33.890625 C 255.550781 -71.078125 197.222656 -115.1875 154.203125 -166.21875 C 111.179688 -217.257812 83.113281 -263.925781 70 -306.21875 C 59.789062 -342.675781 65.617188 -369.285156 87.484375 -386.046875 C 109.359375 -402.816406 134.148438 -400.265625 161.859375 -378.390625 C 208.515625 -341.941406 260.640625 -312.050781 318.234375 -288.71875 C 375.835938 -265.382812 438.179688 -253.71875 505.265625 -253.71875 C 573.796875 -253.71875 632.847656 -273.398438 682.421875 -312.765625 C 732.003906 -352.140625 756.796875 -409.742188 756.796875 -485.578125 C 756.796875 -526.398438 747.679688 -564.3125 729.453125 -599.3125 C 711.222656 -634.3125 678.410156 -664.929688 631.015625 -691.171875 C 583.628906 -717.421875 515.460938 -738.566406 426.515625 -754.609375 C 404.640625 -758.984375 390.421875 -769.550781 383.859375 -786.3125 C 377.296875 -803.082031 376.203125 -821.3125 380.578125 -841 C 384.953125 -860.6875 392.242188 -874.90625 402.453125 -883.65625 C 475.359375 -947.8125 539.515625 -1005.40625 594.921875 -1056.4375 C 650.335938 -1107.476562 699.921875 -1163.625 743.671875 -1224.875 C 635.765625 -1229.25 527.128906 -1229.25 417.765625 -1224.875 C 372.566406 -1223.414062 339.757812 -1217.582031 319.34375 -1207.375 C 298.925781 -1197.164062 278.507812 -1181.851562 258.09375 -1161.4375 C 234.757812 -1139.5625 216.894531 -1122.0625 204.5 -1108.9375 C 192.113281 -1095.820312 177.898438 -1089.265625 161.859375 -1089.265625 C 142.898438 -1089.265625 129.410156 -1098.007812 121.390625 -1115.5 C 113.367188 -1133 110.085938 -1153.414062 111.546875 -1176.75 C 113.003906 -1207.375 118.109375 -1243.828125 126.859375 -1286.109375 C 135.609375 -1328.398438 145.085938 -1367.039062 155.296875 -1402.03125 C 169.878906 -1448.695312 189.195312 -1481.875 213.25 -1501.5625 C 237.3125 -1521.25 285.070312 -1531.09375 356.53125 -1531.09375 L 1082.703125 -1531.09375 C 1120.609375 -1531.09375 1143.570312 -1519.789062 1151.59375 -1497.1875 C 1159.613281 -1474.582031 1153.414062 -1448.695312 1133 -1419.53125 C 1068.84375 -1333.5 999.210938 -1248.925781 924.109375 -1165.8125 C 849.015625 -1082.695312 779.390625 -1006.875 715.234375 -938.34375 C 802.722656 -925.21875 883.285156 -900.789062 956.921875 -865.0625 C 1030.566406 -829.332031 1089.625 -780.484375 1134.09375 -718.515625 C 1178.570312 -656.546875 1200.8125 -578.171875 1200.8125 -483.390625 C 1200.8125 -390.066406 1177.476562 -305.125 1130.8125 -228.5625 C 1084.15625 -152.007812 1015.625 -91.128906 925.21875 -45.921875 C 834.8125 -0.722656 723.988281 21.875 592.75 21.875 Z M 592.75 21.875 "/></g></g></g><g fill="#ffc700" fill-opacity="1"><g transform="translate(1267.829223, 2038.827466)"><g><path d="M 544.53125 -1357.390625 C 554.957031 -1357.390625 567.28125 -1356.953125 581.5 -1356.078125 C 595.726562 -1355.203125 607.109375 -1353.890625 615.640625 -1352.140625 L 600 -1168.421875 C 592.414062 -1170.171875 582.457031 -1171.703125 570.125 -1173.015625 C 557.800781 -1174.328125 546.898438 -1174.984375 537.421875 -1174.984375 C 501.410156 -1174.984375 466.816406 -1169.078125 433.640625 -1157.265625 C 400.460938 -1145.453125 373.6875 -1126.421875 353.3125 -1100.171875 C 332.9375 -1073.929688 322.75 -1038.066406 322.75 -992.578125 L 322.75 -627.75 L 110.90625 -627.75 L 110.90625 -1344.265625 L 271.5625 -1344.265625 L 302.84375 -1223.53125 L 312.796875 -1223.53125 C 335.535156 -1260.28125 366.8125 -1291.773438 406.625 -1318.015625 C 446.4375 -1344.265625 492.40625 -1357.390625 544.53125 -1357.390625 Z M 544.53125 -1357.390625 "/></g></g></g><g fill="#ffc700" fill-opacity="1"><g transform="translate(1913.070991, 2038.827466)"><g><path d="M 356.859375 -614.625 C 270.609375 -614.625 200.234375 -645.898438 145.734375 -708.453125 C 91.234375 -771.003906 63.984375 -863.085938 63.984375 -984.703125 C 63.984375 -1107.179688 91.46875 -1199.914062 146.4375 -1262.90625 C 201.414062 -1325.894531 273.453125 -1357.390625 362.546875 -1357.390625 C 418.472656 -1357.390625 464.441406 -1347.328125 500.453125 -1327.203125 C 536.472656 -1307.078125 564.914062 -1282.144531 585.78125 -1252.40625 L 592.890625 -1252.40625 C 590.046875 -1266.40625 586.722656 -1286.742188 582.921875 -1313.421875 C 579.128906 -1340.109375 577.234375 -1367.453125 577.234375 -1395.453125 L 577.234375 -1625.109375 L 789.09375 -1625.109375 L 789.09375 -627.75 L 627 -627.75 L 585.78125 -720.921875 L 577.234375 -720.921875 C 556.378906 -691.171875 528.414062 -666.015625 493.34375 -645.453125 C 458.28125 -624.898438 412.785156 -614.625 356.859375 -614.625 Z M 430.796875 -770.78125 C 488.617188 -770.78125 529.378906 -786.75 553.078125 -818.6875 C 576.773438 -850.625 589.570312 -898.523438 591.46875 -962.390625 L 591.46875 -983.390625 C 591.46875 -1052.503906 579.851562 -1105.648438 556.625 -1142.828125 C 533.394531 -1180.003906 490.503906 -1198.59375 427.953125 -1198.59375 C 381.503906 -1198.59375 345.007812 -1180.003906 318.46875 -1142.828125 C 291.9375 -1105.648438 278.671875 -1052.066406 278.671875 -982.078125 C 278.671875 -912.085938 291.9375 -859.375 318.46875 -823.9375 C 345.007812 -788.5 382.453125 -770.78125 430.796875 -770.78125 Z M 430.796875 -770.78125 "/></g></g></g></g></g></svg>